<svg xmlns="http://www.w3.org/2000/svg" width="30" height="30" viewBox="100 0 30 30" fill="none">
  <path fill-rule="evenodd" clip-rule="evenodd" d="M115 0C106.716 0 100 6.71573 100 15C100 23.2843 106.716 30 115 30C123.284 30 130 23.2843 130 15C130 6.71573 123.284 0 115 0ZM111.702 7.04833C112.555 7.0095 112.828 7 115.001 7H114.998C117.172 7 117.443 7.0095 118.297 7.04833C119.148 7.08733 119.73 7.22217 120.24 7.42C120.767 7.62417 121.212 7.89751 121.657 8.34251C122.102 8.78719 122.375 9.23352 122.58 9.7597C122.777 10.2684 122.912 10.8497 122.952 11.7014C122.99 12.5547 123 12.8274 123 15.0001C123 17.1728 122.99 17.4448 122.952 18.2981C122.912 19.1495 122.777 19.731 122.58 20.2398C122.375 20.7658 122.102 21.2121 121.657 21.6568C121.212 22.1018 120.766 22.3758 120.24 22.5802C119.731 22.778 119.149 22.9128 118.298 22.9518C117.444 22.9907 117.173 23.0002 115 23.0002C112.827 23.0002 112.555 22.9907 111.701 22.9518C110.85 22.9128 110.268 22.778 109.759 22.5802C109.234 22.3758 108.787 22.1018 108.343 21.6568C107.898 21.2121 107.625 20.7658 107.42 20.2396C107.222 19.731 107.088 19.1496 107.048 18.298C107.01 17.4446 107 17.1728 107 15.0001C107 12.8274 107.01 12.5546 107.048 11.7012C107.087 10.8499 107.222 10.2684 107.42 9.75953C107.625 9.23352 107.898 8.78719 108.343 8.34251C108.788 7.89768 109.234 7.62434 109.76 7.42C110.269 7.22217 110.85 7.08733 111.702 7.04833Z" fill="white"/>
  <path fill-rule="evenodd" clip-rule="evenodd" d="M114.283 8.4417C114.422 8.44148 114.572 8.44155 114.734 8.44162L115.001 8.4417C117.137 8.4417 117.39 8.44936 118.233 8.4877C119.013 8.52336 119.437 8.6537 119.719 8.7632C120.092 8.9082 120.358 9.08154 120.638 9.36154C120.918 9.64154 121.092 9.90821 121.237 10.2815C121.346 10.5632 121.477 10.9866 121.512 11.7666C121.551 12.6099 121.559 12.8632 121.559 14.9983C121.559 17.1333 121.551 17.3866 121.512 18.23C121.477 19.01 121.346 19.4333 121.237 19.715C121.092 20.0883 120.918 20.3542 120.638 20.634C120.358 20.914 120.092 21.0873 119.719 21.2323C119.437 21.3423 119.013 21.4723 118.233 21.508C117.39 21.5463 117.137 21.5547 115.001 21.5547C112.865 21.5547 112.611 21.5463 111.768 21.508C110.988 21.472 110.565 21.3417 110.283 21.2322C109.909 21.0872 109.643 20.9138 109.363 20.6338C109.083 20.3538 108.909 20.0878 108.764 19.7143C108.654 19.4326 108.524 19.0093 108.488 18.2293C108.45 17.386 108.442 17.1326 108.442 14.9963C108.442 12.8599 108.45 12.6079 108.488 11.7646C108.524 10.9846 108.654 10.5612 108.764 10.2792C108.909 9.90588 109.083 9.63921 109.363 9.35921C109.643 9.0792 109.909 8.90587 110.283 8.76053C110.565 8.65053 110.988 8.52053 111.768 8.4847C112.506 8.45136 112.792 8.44136 114.283 8.4397V8.4417ZM119.271 9.77004C118.741 9.77004 118.311 10.1995 118.311 10.7297C118.311 11.2597 118.741 11.6897 119.271 11.6897C119.801 11.6897 120.231 11.2597 120.231 10.7297C120.231 10.1997 119.801 9.76971 119.271 9.76971V9.77004ZM110.892 15.0001C110.892 12.7313 112.732 10.8918 115.001 10.8917C117.269 10.8917 119.108 12.7312 119.108 15.0001C119.108 17.269 117.27 19.1076 115.001 19.1076C112.732 19.1076 110.892 17.269 110.892 15.0001Z" fill="white"/>
  <path fill-rule="evenodd" clip-rule="evenodd" d="M115.001 12.3335C116.473 12.3335 117.667 13.5273 117.667 15.0002C117.667 16.4729 116.473 17.6669 115.001 17.6669C113.528 17.6669 112.334 16.4729 112.334 15.0002C112.334 13.5273 113.528 12.3335 115.001 12.3335V12.3335Z" fill="white"/>
</svg>