<svg xmlns="http://www.w3.org/2000/svg" width="30" height="30" viewBox="50 0 30 30" fill="none">
  <path fill-rule="evenodd" clip-rule="evenodd" d="M65 0C56.7157 0 50 6.71573 50 15C50 23.2843 56.7157 30 65 30C73.2843 30 80 23.2843 80 15C80 6.71573 73.2843 0 65 0ZM64.5822 12.7112L64.5508 12.1922C64.4563 10.8469 65.2852 9.6182 66.5967 9.14154C67.0794 8.97206 67.8978 8.95087 68.4329 9.09917C68.6427 9.16273 69.0414 9.37458 69.3247 9.56524L69.8388 9.91479L70.4054 9.73472C70.7202 9.63939 71.1398 9.4805 71.3287 9.37458C71.5071 9.27924 71.6645 9.22628 71.6645 9.25806C71.6645 9.43813 71.2762 10.0525 70.951 10.3915C70.5103 10.8681 70.6362 10.9105 71.5281 10.5927C72.0632 10.4126 72.0737 10.4126 71.9687 10.6139C71.9058 10.7198 71.5805 11.0906 71.2343 11.4295C70.6467 12.0121 70.6152 12.0757 70.6152 12.5629C70.6152 13.315 70.2585 14.8827 69.9018 15.7407C69.2408 17.3507 67.8243 19.0138 66.4079 19.8506C64.4144 21.0264 61.7598 21.3229 59.525 20.6344C58.78 20.4014 57.5 19.8082 57.5 19.7023C57.5 19.6705 57.8882 19.6281 58.3604 19.6175C59.3466 19.5964 60.3329 19.321 61.1723 18.8337L61.7388 18.4947L61.0883 18.2723C60.165 17.9545 59.3361 17.2236 59.1263 16.5351C59.0633 16.3127 59.0843 16.3021 59.6719 16.3021L60.2804 16.2915L59.7663 16.0479C59.1578 15.7407 58.6017 15.2217 58.3289 14.692C58.1295 14.3107 57.8777 13.3468 57.9512 13.2726C57.9721 13.2408 58.1925 13.3044 58.4443 13.3891C59.1683 13.654 59.2627 13.5904 58.843 13.1455C58.0561 12.3405 57.8148 11.1435 58.1925 10.0101L58.3709 9.50169L59.0633 10.1902C60.4798 11.5778 62.148 12.404 64.0576 12.6477L64.5822 12.7112Z" fill="white"/>
</svg>